PathFileType	4	(X/Y/Z)	RBDS05\RBDS05runT25.trc
DataRate	CameraRate	NumFrames	NumMarkers	Units	OrigDataRate	OrigDataStartFrame	OrigNumFrames
150.000000	150.000000	4	33	mm	150.000000	2250	4500
Frame#	Time	L.ASIS			L.Heel.Bottom			L.Heel.Lateral			L.Heel.Top			L.Iliac.Crest			L.MT1			L.MT5			L.PSIS			L.Shank.Bottom.Lateral			L.Shank.Bottom.Medial			L.Shank.Top.Lateral			L.Shank.Top.Medial			L.Thigh.Bottom.Lateral			L.Thigh.Bottom.Medial			L.Thigh.Top.Lateral			L.Thigh.Top.Medial			R.ASIS			R.ASY			R.Heel.Bottom			R.Heel.Lateral			R.Heel.Top			R.Iliac.Crest			R.MT1			R.MT5			R.PSIS			R.Shank.Bottom.Lateral			R.Shank.Bottom.Medial			R.Shank.Top.Lateral			R.Shank.Top.Medial			R.Thigh.Bottom.Lateral			R.Thigh.Bottom.Medial			R.Thigh.Top.Lateral			R.Thigh.Top.Medial			
		X1	Y1	Z1	X2	Y2	Z2	X3	Y3	Z3	X4	Y4	Z4	X5	Y5	Z5	X6	Y6	Z6	X7	Y7	Z7	X8	Y8	Z8	X9	Y9	Z9	X10	Y10	Z10	X11	Y11	Z11	X12	Y12	Z12	X13	Y13	Z13	X14	Y14	Z14	X15	Y15	Z15	X16	Y16	Z16	X17	Y17	Z17	X18	Y18	Z18	X19	Y19	Z19	X20	Y20	Z20	X21	Y21	Z21	X22	Y22	Z22	X23	Y23	Z23	X24	Y24	Z24	X25	Y25	Z25	X26	Y26	Z26	X27	Y27	Z27	X28	Y28	Z28	X29	Y29	Z29	X30	Y30	Z30	X31	Y31	Z31	X32	Y32	Z32	X33	Y33	Z33	

2251	15	2254.120647202721	955.8891116637989	910.8860215199203	1821.06188121877	98.13022104990273	1002.212222080637	1853.265483235488	103.3786867429173	956.6730208159848	1848.726379103873	139.7054523494384	1000.880143800703	2206.606936635613	1026.013063652667	881.9254199327319	2015.535888409486	44.20888584024139	1023.224568808393	1978.248449392014	47.3290806426226	924.8094134356326	2108.373251676991	1004.297689168944	994.5008541947326	1940.201406905764	209.6072002317755	930.57616997935	1908.23612491714	227.285279323935	966.1799254174747	1968.195599240131	283.7651950568769	913.5221725871324	1935.987433189727	305.3675411504319	950.0125733012965	2119.461351029986	611.399058934548	873.4653669039716	2062.058724552243	613.712266925185	918.4124672080811	2116.121030281731	721.8488749959065	869.6239578191136	2067.432812404057	724.1979443330114	918.5143369687003	2270.756330739221	968.5380248816807	1134.623248640007	2284.265581070071	121.0491371489048	1100.303371932844	2106.659965764472	100.5141598053982	1067.464637936031	2130.065821528196	112.8513262066925	1108.86141260688	2128.33006553429	143.8911948286311	1065.004818576384	2215.632059333912	1016.902179583763	1173.113002474141	2311.458079136505	60.27123313294663	1067.289017122243	2271.536189152693	74.48662783340306	1164.390053156218	2115.890998978138	1006.396329861831	1082.528136147444	2206.149324303608	231.7012439666034	1130.614986206375	2173.212023443322	246.3561638034246	1089.335747419473	2222.730995618192	310.4532833194414	1142.414021115807	2191.217164211294	323.5051746437823	1100.902813385387	2330.00346171842	608.4418308409053	1174.702818603839	2266.632821658504	579.3178103061446	1151.282763324385	2277.184718353738	704.3058487205686	1191.137788125479	2217.29935953799	676.2385648907743	1167.706480819237	
2252	15.00666666666667	2254.539002301489	959.0129408392387	911.1111210189804	1809.610470177799	108.3717796457136	1002.072515268576	1842.044722185535	111.7353807642878	956.5109143325668	1839.254921887046	148.5105693866515	1000.550165919147	2207.7934751157	1030.391401693886	882.674972748966	2000.840630414971	44.76806225053371	1022.962716313152	1963.488247365613	49.10512424115502	924.4910318716687	2109.241338915218	1008.782711439579	994.6930453061503	1929.593010631466	216.3035081469931	930.4289055531882	1898.462780492448	233.5375144091794	966.9935339457713	1957.642142271546	290.6059237807988	914.1352478501336	1926.484233948484	311.7470876703682	951.6814865370268	2113.057729451434	616.5579815689304	874.7981653458028	2056.277289763485	620.3302576151075	920.4811989375009	2112.232349831408	727.0742197789546	870.7497451582306	2064.148601522803	730.6655473470091	920.2383966057025	2271.381349783641	972.0165363118241	1134.434270238923	2305.572738725487	121.004621378161	1099.402657469989	2129.492560372085	89.61103500926929	1065.9017033044	2151.962973972597	103.2356884778674	1107.428401316118	2148.421873692128	134.3048981731106	1063.763398090394	2216.322567278998	1021.035337421473	1173.115371927205	2336.462819392291	62.22093957985992	1066.221704552222	2295.500341361452	73.47116901729351	1163.257139632562	2117.200761885178	1010.96308454061	1082.765222118106	2220.755175246004	226.9409263722252	1129.503163620609	2187.205672760702	239.6675921908131	1088.114431701371	2232.633371098739	306.4772754062683	1141.46622957405	2200.621831263773	317.7173547091556	1099.807663771484	2328.174215038938	611.0201180879948	1173.55782572761	2264.357990704731	582.2768346711005	1150.753308339744	2276.095718426473	707.2825098484332	1190.138788141031	2215.964261872756	679.7162178379866	1166.863716483993	
2253	15.01333333333333	2255.121545191088	962.0160156123245	911.4419620542066	1798.883081154964	119.0100837530893	1001.973611720014	1831.44411994948	120.4823639370934	956.3974622297939	1830.475749291433	157.5961701858088	1000.268330296643	2208.823540983538	1034.65992130014	883.4644701182287	1986.538692125095	45.64658098359438	1022.723010771004	1949.13790303831	51.2575616199954	924.168933638168	2110.203415930208	1013.045165150825	994.8587950657121	1919.684998652231	222.9245412480606	930.2850018449891	1889.348026381938	239.7726040194081	967.7306348855227	1947.872551569673	297.3241015438333	914.689135595342	1917.74700944226	318.0578694631883	953.2232205506452	2107.457561797675	621.5476735804783	875.9942813665107	2051.225594746585	626.6712309490691	922.2722684835775	2108.952406109395	732.0797279682505	871.7152731205223	2061.407805557749	736.8146911241886	921.6927933525358	2271.973962324021	975.1231431442056	1134.367709362496	2326.489201732254	121.671919503171	1098.444638043991	2152.622055826896	79.62661946172382	1064.437115050294	2174.161260623551	94.37658846883041	1106.086462906622	2168.720199436414	125.428904902239	1062.693630941564	2217.035414206738	1024.801142613603	1173.171009197841	2360.891788099227	65.22329921399236	1064.895643092779	2319.26065839793	73.24555280745706	1161.972522125746	2118.56331260356	1015.153308623411	1083.008660937357	2235.280631979256	222.5423641175331	1128.542712802532	2201.216075177541	233.3333604789429	1087.072214854332	2242.441657060182	302.573826649174	1140.697162670096	2210.021307105563	312.000375708954	1098.904061452492	2325.689598363755	612.9185631948837	1172.694063821845	2261.529219885113	584.688200323717	1150.17689960034	2274.460701076613	709.6300189075432	1189.321463321438	2214.123810264295	682.6845446227908	1165.965983485562	
2254	15.02	2255.831623221876	964.8533680285049	911.8681664719413	1788.845307466406	129.935723066702	1001.949493949294	1821.409006743414	129.537191332683	956.3557437759233	1822.316894691042	166.873023291458	1000.050145297714	2209.716433485763	1038.762411974091	884.2886928669516	1972.624667925473	46.90929526132197	1022.503332717782	1935.184407418765	53.80623431282991	923.8714756352128	2111.22442760963	1017.005901445564	995.0251546795466	1910.444500907422	229.39738140745	930.1523003118912	1880.829823683403	245.9532824088271	968.3612958983994	1938.891875696797	303.8265119616884	915.1679865188587	1909.733139408081	324.2443327320204	954.5737562692208	2102.693218279488	626.263647373659	877.031475758272	2046.906892368998	632.6263723790966	923.7373306653182	2106.299614197881	736.7689121084945	872.4978749836716	2059.198027098963	742.5486425413477	922.8357505102899	2272.533790761876	977.8180507616424	1134.418382538649	2346.802920568471	123.0519231403136	1097.44447130082	2175.802821702619	70.63243486231474	1063.148042576371	2196.440945243569	86.35881930907972	1104.902614347761	2189.003607976027	117.3262398904434	1061.853453252515	2217.788212383777	1028.144896479308	1173.286880236607	2384.484240592441	69.24376706440869	1063.330673252304	2342.611612219122	73.85641196418712	1160.568563772704	2119.93449023692	1018.889480622092	1083.285263029606	2249.591123652466	218.5695298489054	1127.755644063953	2215.097781918279	227.4286315388079	1086.234703508369	2252.081303679531	298.8132585815452	1140.103719614644	2219.325718382501	306.4324347474351	1098.198177254629	2322.660863754057	614.1478976502896	1172.105507999852	2258.25687359212	586.5562167093937	1149.550285084381	2272.368027750363	711.3418074089768	1188.715828063273	2211.875248764827	685.1241864026558	1165.050305694253	
